<svg xmlns="http://www.w3.org/2000/svg" viewBox="0 0 241.08 396.12"><defs><style>.cls-1{fill:#61a60e;}</style></defs><g id="Layer_2" data-name="Layer 2"><g id="Layer_1-2" data-name="Layer 1"><path class="cls-1" d="M31.84,325.54h6.23v1.61c0,4.09,2.24,5.45,4.57,5.45s4.43-1.41,4.43-5.16V308.61h-8.9v-5.39H53.34v24.32c0,7.54-5.44,10.8-10.8,10.8s-10.7-3.36-10.7-10.8Z"/><path class="cls-1" d="M84.43,302.63a17.45,17.45,0,0,1,17.85,17.61,17.86,17.86,0,1,1-35.71,0A17.46,17.46,0,0,1,84.43,302.63Zm0,30c6.32,0,11.38-5.26,11.38-12.36,0-6.81-5.06-11.87-11.38-11.87S73,313.43,73,320.24C73,327.34,78.1,332.6,84.43,332.6Z"/><path class="cls-1" d="M115.94,303.22h6.28v34.53h-6.28Z"/><path class="cls-1" d="M138.27,303.22h6.28l13.08,19.94a52.61,52.61,0,0,1,2.87,5.35h.1s-.34-3.31-.34-5.35V303.22h6.22v34.53h-6.22l-13.09-19.89a53.76,53.76,0,0,1-2.87-5.35h-.09s.34,3.3.34,5.35v19.89h-6.28Z"/><path class="cls-1" d="M189.68,308.61H178.35v-5.39h28.94v5.39H196v29.14h-6.28Z"/><path class="cls-1" d="M12.24,361.59h6.28v14.64H34.33V361.59H40.6v34.53H34.33V381.63H18.52v14.49H12.24Z"/><path class="cls-1" d="M56.65,361.59H77.32V367H62.93v9H74.55v5.4H62.93v9.3H78.1v5.39H56.65Z"/><path class="cls-1" d="M109.09,387.27H97l-2.91,8.85H87.59l12.16-34.53h6.56l12.17,34.53H112ZM103,367.57s-.78,3.4-1.46,5.35l-3.07,9.24h9l-3.06-9.24c-.64-1.95-1.37-5.35-1.37-5.35Z"/><path class="cls-1" d="M130.2,361.59h6.27v29.14h14.94v5.39H130.2Z"/><path class="cls-1" d="M168.09,367H156.75v-5.4H185.7V367H174.37v29.13h-6.28Z"/><path class="cls-1" d="M197.56,361.59h6.28v14.64h15.81V361.59h6.27v34.53h-6.27V381.63H203.84v14.49h-6.28Z"/><path class="cls-1" d="M200.21,61.15a83.83,83.83,0,0,0-18.12-34.3,5.07,5.07,0,1,0-7.64,6.66,73.85,73.85,0,0,1,14.94,26.71,50.63,50.63,0,0,0-31.84,89.17L89,228.46H10.5a35.43,35.43,0,0,1,35-30.31h31a5.07,5.07,0,0,0,4.39-2.54l33.37-58.22a5.22,5.22,0,0,0,.9-2.92,5.06,5.06,0,0,0-6.6-4.83,70.54,70.54,0,0,1-59.79-22.49C23.23,79.52,24.08,35.33,50.66,8.64a5.07,5.07,0,0,0-7.18-7.15C13.11,32,12.15,82.46,41.34,114A81.68,81.68,0,0,0,101,140.16L73.57,188H45.51A45.55,45.55,0,0,0,0,233.53a5.07,5.07,0,0,0,5.07,5.06H91.34a5,5,0,0,0,3.82-1.75l70.76-81.64a50.66,50.66,0,1,0,34.29-94Zm-9.8,90.25a40.54,40.54,0,1,1,40.53-40.54A40.58,40.58,0,0,1,190.41,151.4Z"/><path class="cls-1" d="M214.73,105.79H195.48V86.54a5.07,5.07,0,1,0-10.14,0v19.25H166.09a5.07,5.07,0,1,0,0,10.14h19.25v19.25a5.07,5.07,0,0,0,10.14,0V115.93h19.25a5.07,5.07,0,1,0,0-10.14Z"/></g></g></svg>