<svg xmlns="http://www.w3.org/2000/svg" viewBox="0 0 251.29 414.98"><defs><style>.cls-1{fill:#61a60e;}</style></defs><g id="Layer_2" data-name="Layer 2"><g id="Layer_1-2" data-name="Layer 1"><path class="cls-1" d="M77.9,321.48c8.46,0,12.84,4.38,12.84,4.38l-3.11,4.67a14.92,14.92,0,0,0-9.2-3.3c-7.73,0-11.87,5.35-11.87,11.87,0,7.49,5.11,12.35,11.58,12.35a13,13,0,0,0,8.66-3.6v-4H81.5v-5.4H92.44v18.2H87.09V355c0-.73,0-1.46,0-1.46H87a14.64,14.64,0,0,1-10,3.7c-9.09,0-16.93-7.05-16.93-17.9A17.43,17.43,0,0,1,77.9,321.48Z"/><path class="cls-1" d="M106.2,322.07h6.28V344.2c0,4.62,3,7.25,7.64,7.25s7.68-2.63,7.68-7.3V322.07h6.28V344.2c0,7.74-5.59,13-13.91,13s-14-5.25-14-13Z"/><path class="cls-1" d="M156.79,327.47H145.46v-5.4H174.4v5.4H163.07v29.14h-6.28Z"/><path class="cls-1" d="M9.48,380.44h6.28v14.64H31.57V380.44h6.27V415H31.57v-14.5H15.76V415H9.48Z"/><path class="cls-1" d="M53.89,380.44H74.57v5.4H60.17v9.05H71.79v5.4H60.17v9.29H75.34V415H53.89Z"/><path class="cls-1" d="M106.33,406.12H94.22L91.3,415H84.83L97,380.44h6.57L115.72,415h-6.47Zm-6.08-19.7s-.78,3.41-1.46,5.35L95.72,401h9l-3.06-9.25c-.64-1.94-1.36-5.35-1.36-5.35Z"/><path class="cls-1" d="M127.44,380.44h6.27v29.14h14.94V415H127.44Z"/><path class="cls-1" d="M165.33,385.84H154v-5.4h28.94v5.4H171.61V415h-6.28Z"/><path class="cls-1" d="M194.81,380.44h6.27v14.64h15.81V380.44h6.28V415h-6.28v-14.5H201.08V415h-6.27Z"/><path class="cls-1" d="M155,205.25a5.07,5.07,0,1,0,0-10.13H45.6a35.47,35.47,0,0,1,0-70.94H156.08a5.07,5.07,0,1,0,0-10.13H45.6A35.47,35.47,0,0,1,10.16,77.28c.67-18.84,17-34.17,36.41-34.17H90.29a13.2,13.2,0,0,0,13.18-13.18V5.07a5.07,5.07,0,1,0-10.14,0V29.93a3,3,0,0,1-3,3H46.57C21.77,33,.89,52.69,0,76.92a45.72,45.72,0,0,0,24.68,42.22A45.59,45.59,0,0,0,45.6,205.25H71a45.86,45.86,0,0,0-17.2,35.8v30.18a5.07,5.07,0,1,0,10.13,0V241.05a35.84,35.84,0,0,1,35.8-35.8Z"/><path class="cls-1" d="M201.53,122.77A50.66,50.66,0,1,0,150,72.13c0,.46,0,.92,0,1.38H126.82A45.85,45.85,0,0,0,144,37.72V5.07a5.07,5.07,0,1,0-10.13,0V37.72a35.83,35.83,0,0,1-35.8,35.79H45.6a5.07,5.07,0,0,0,0,10.14H151.29a50.79,50.79,0,0,0,40.13,38.29,35.43,35.43,0,0,1-35.34,32.64,1.38,1.38,0,0,0-.2,0c-.29,0-.57,0-.86,0H45.6a5.07,5.07,0,0,0,0,10.14H155c19.5,0,35.88,15.36,36.51,34.25a35.46,35.46,0,0,1-35.45,36.68H107.54a13.2,13.2,0,0,0-13.18,13.19v22.39a5.07,5.07,0,1,0,10.14,0V248.84a3,3,0,0,1,3-3.05h48.54a45.59,45.59,0,0,0,45.58-47.16c-.56-16.74-10.67-31.32-25-38.77a45.67,45.67,0,0,0,12.26-9A45.18,45.18,0,0,0,201.53,122.77ZM160.09,72.13a40.54,40.54,0,1,1,40.53,40.53A40.58,40.58,0,0,1,160.09,72.13Z"/><path class="cls-1" d="M205.69,96.45V77.19h19.25a5.07,5.07,0,1,0,0-10.13H205.69V47.81a5.07,5.07,0,1,0-10.13,0V67.06H176.3a5.07,5.07,0,0,0,0,10.13h19.26V96.45a5.07,5.07,0,1,0,10.13,0Z"/></g></g></svg>