<svg xmlns="http://www.w3.org/2000/svg" viewBox="0 0 370.94 399.53"><defs><style>.cls-1{fill:#61a60e;}</style></defs><g id="Layer_2" data-name="Layer 2"><g id="Layer_1-2" data-name="Layer 1"><path class="cls-1" d="M3.41,332.31S7.15,336,12,336c2.63,0,5-1.36,5-4.18,0-6.18-16.3-5.11-16.3-15.71,0-5.74,5-10,11.58-10,6.81,0,10.31,3.69,10.31,3.69l-2.72,5.11a12.63,12.63,0,0,0-7.64-3c-2.92,0-5.21,1.7-5.21,4.13,0,6.13,16.25,4.62,16.25,15.66,0,5.5-4.18,10.12-11.38,10.12A16.73,16.73,0,0,1,0,337Zm33.46-25.69h6.27v14.06h4.48l8.12-14.06h6.81l-9.77,16.44v.1l10.36,18H56.08l-8.46-15.08H43.14v15.08H36.87Zm38.77,0h6.27v34.54H75.64Zm22.32,0h6.28l13.08,19.95a50.51,50.51,0,0,1,2.87,5.35h.1s-.34-3.31-.34-5.35V306.62h6.23v34.54H120l-13.08-19.9a51.39,51.39,0,0,1-2.88-5.35h-.09s.34,3.31.34,5.35v19.9H98ZM165,322.77v-.09s-4.38-1.71-4.38-7.55c0-6.12,4.92-9.09,10.9-9.09a21.73,21.73,0,0,1,4.52.58l-1.5,5a11,11,0,0,0-2.29-.29c-2.92,0-5.3,1.61-5.3,4.62,0,2,1.11,4.58,5.25,4.58h5.5V316h6.18v4.48h4.47v5.44h-4.47V330c0,7.05-4.63,11.72-12.41,11.72-7.49,0-12.36-4.52-12.36-10.36A9.06,9.06,0,0,1,165,322.77ZM171.51,336c3.89,0,6.23-2.14,6.23-6.32v-3.75H171.9c-3.84,0-6.32,1.71-6.32,5.06C165.58,333.77,168,336,171.51,336Zm65-30c8.41,0,12.74,4.72,12.74,4.72l-3,4.67a15.21,15.21,0,0,0-9.43-3.65c-7.3,0-11.58,5.45-11.58,11.87,0,6.57,4.43,12.35,11.63,12.35a14.88,14.88,0,0,0,10-4.38l3.3,4.53a18.57,18.57,0,0,1-13.57,5.59c-10.56,0-17.85-7.83-17.85-18A17.36,17.36,0,0,1,236.55,306Zm42,0a17.44,17.44,0,0,1,17.85,17.61,17.85,17.85,0,1,1-35.7,0A17.44,17.44,0,0,1,278.57,306Zm0,30c6.32,0,11.38-5.25,11.38-12.35,0-6.81-5.06-11.87-11.38-11.87s-11.38,5.06-11.38,11.87C267.19,330.75,272.25,336,278.57,336Zm48.5-3.69H315L312,341.16h-6.46l12.16-34.54h6.56l12.17,34.54H330ZM321,312.6s-.78,3.41-1.47,5.36l-3.06,9.24h9.05L322.44,318c-.63-1.95-1.36-5.36-1.36-5.36Zm32.34-.58H342v-5.4h28.94V312H359.61v29.14h-6.28ZM77.85,365h6.28v14.64H99.94V365h6.27v34.54H99.94V385H84.13v14.5H77.85Zm44.41,0h20.67v5.4h-14.4v9.05h11.63v5.4H128.53v9.29h15.18v5.4H122.26Zm52.44,25.69H162.58l-2.91,8.85H153.2L165.36,365h6.56l12.17,34.54h-6.47ZM168.62,371s-.78,3.4-1.46,5.35l-3.07,9.24h9l-3.06-9.24c-.64-1.95-1.37-5.35-1.37-5.35Zm27.19-6h6.27v29.14H217v5.4H195.81Zm37.89,5.4H222.36V365h28.95v5.4H240v29.14H233.7Zm29.47-5.4h6.28v14.64h15.81V365h6.27v34.54h-6.27V385H269.45v14.5h-6.28Zm52.48-190.61A7.47,7.47,0,0,0,301,176.43c-.06,9.19-1.74,21.7-9.37,29.08a23.36,23.36,0,0,1-13.11,6.12c2.63-12.19,4.22-37.64-18-63.35a50.64,50.64,0,0,0-64.05-77.74C184,55.4,173.87,43,169.62,37.8,179.4,25.36,177.29,10.47,174,3A5.06,5.06,0,0,0,166.81.68l-27.1,15.66-20.85-4.22A24.13,24.13,0,0,0,92.94,24l-10.86-.6a11.46,11.46,0,0,0-12,12.95l1.5,11.38a21.9,21.9,0,0,0,16,18.3l36.13,9.86-5.3,140.21a18.88,18.88,0,0,0-16.07,18.64,5.07,5.07,0,0,0,5.07,5.07h30.73a5.06,5.06,0,0,0,4.85-3.61l17.09-57.09,31.67,32.19H181.55a14,14,0,0,0-13.22,9.38L164,233a5.06,5.06,0,0,0,4.78,6.74h98a52.25,52.25,0,0,0,41.84-20.52C318,206.64,320.49,190.71,315.65,174.38Zm-50.73-61.59a40.54,40.54,0,1,1-40.54-40.53A40.58,40.58,0,0,1,264.92,112.79Zm35.52,100.39a42,42,0,0,1-33.71,16.45H175.92l2-5.66a3.88,3.88,0,0,1,3.66-2.59h22.28a5.07,5.07,0,0,0,3.61-8.62l-46.17-46.91a5.07,5.07,0,0,0-8.46,2.1l-18.47,61.68H114.08a8.74,8.74,0,0,1,7.1-3.65h2.09a5.08,5.08,0,0,0,5.07-4.88L134,72.21a5.07,5.07,0,0,0-3.73-5.08l-40-10.93a11.76,11.76,0,0,1-8.59-9.84L80.12,35a1.32,1.32,0,0,1,.35-1.09,1.35,1.35,0,0,1,1-.42l14.23.78a5.1,5.1,0,0,0,4.89-3l.53-1.18a14,14,0,0,1,15.68-8l22.73,4.6a5.09,5.09,0,0,0,3.54-.58l23.1-13.36c1.05,6.64.39,17.77-12.56,25.75A5.07,5.07,0,0,0,159,47.1c1.18-.73,2.28-1.48,3.32-2.25.35.44.73.9,1.14,1.4L188.61,77a50.64,50.64,0,0,0,64.12,77.82c26.09,30,14.8,59.12,14.29,60.37a5.06,5.06,0,0,0,4.55,7c11.23.29,20.41-2.84,27.13-9.35a35.14,35.14,0,0,0,7.38-10.54A37.13,37.13,0,0,1,300.44,213.18ZM200.06,117.86h19.26v19.25a5.07,5.07,0,1,0,10.13,0V117.86h19.26a5.07,5.07,0,0,0,0-10.14H229.45V88.47a5.07,5.07,0,1,0-10.13,0v19.25H200.06a5.07,5.07,0,0,0,0,10.14Z"/></g></g></svg>