<svg xmlns="http://www.w3.org/2000/svg" viewBox="0 0 295.33 395.73"><defs><style>.cls-1{fill:#61a60e;}</style></defs><g id="Layer_2" data-name="Layer 2"><g id="Layer_1-2" data-name="Layer 1"><path class="cls-1" d="M60.7,302.82H73.05c6.23,0,10.65,3.21,10.65,8.9a8.17,8.17,0,0,1-4.18,7.4v.09c3.8,1.12,5.6,4.63,5.6,8.13,0,6.91-5.55,10-11.92,10H60.7Zm12.35,14.11a4.12,4.12,0,0,0,4.28-4.43c0-2.48-1.46-4.28-4.38-4.28H67v8.71Zm.63,15a5,5,0,1,0,0-10H67v10Z"/><path class="cls-1" d="M99.22,302.82h11.14c3.75,0,5.45.29,7,1,3.45,1.56,5.64,4.87,5.64,9.44,0,4.14-2.19,8-5.84,9.44v.1a8.08,8.08,0,0,1,1.17,1.7l7.1,12.89h-7l-6.86-12.89h-6v12.89H99.22ZM111.14,319c3.35,0,5.45-2,5.45-5.45s-1.42-5.35-6.33-5.35h-4.77V319Z"/><path class="cls-1" d="M155.69,328.51H143.58l-2.92,8.85h-6.47l12.16-34.54h6.57l12.16,34.54h-6.47Zm-6.08-19.71s-.78,3.41-1.46,5.36l-3.06,9.24h9l-3.07-9.24c-.63-2-1.36-5.36-1.36-5.36Z"/><path class="cls-1" d="M176.8,302.82h6.28v34.54H176.8Z"/><path class="cls-1" d="M199.13,302.82h6.28l13.08,19.95a52.61,52.61,0,0,1,2.87,5.35h.1s-.34-3.31-.34-5.35V302.82h6.22v34.54h-6.22L208,317.46a52.61,52.61,0,0,1-2.87-5.35h-.09s.34,3.31.34,5.35v19.9h-6.28Z"/><path class="cls-1" d="M37.18,361.19h6.27v14.64H59.26V361.19h6.28v34.54H59.26v-14.5H43.45v14.5H37.18Z"/><path class="cls-1" d="M81.59,361.19h20.67v5.4H87.86v9.05H99.49V381H87.86v9.29H103v5.4H81.59Z"/><path class="cls-1" d="M134,386.88H121.91L119,395.73h-6.47l12.16-34.54h6.57l12.16,34.54h-6.47Zm-6.08-19.7s-.78,3.4-1.46,5.35l-3.06,9.24h9l-3.07-9.24c-.63-1.95-1.36-5.35-1.36-5.35Z"/><path class="cls-1" d="M155.13,361.19h6.28v29.14h14.93v5.4H155.13Z"/><path class="cls-1" d="M193,366.59H181.69v-5.4h28.94v5.4H199.3v29.14H193Z"/><path class="cls-1" d="M222.5,361.19h6.28v14.64h15.81V361.19h6.27v34.54h-6.27v-14.5H228.78v14.5H222.5Z"/><path class="cls-1" d="M192.33,76.37a5.91,5.91,0,0,1,.4,4A40.65,40.65,0,0,1,172,105.22a43.06,43.06,0,0,1-18.1,4.86l-1,0a34.87,34.87,0,0,1,4.55,16,5.34,5.34,0,0,1-5.07,5.46h-.22a5.07,5.07,0,0,1-5.24-4.8,24.67,24.67,0,0,0-11.52-19.92A41.8,41.8,0,0,1,110.7,75.38a5.32,5.32,0,0,1,10.45-1.95A31.43,31.43,0,0,0,143,98.27,32.4,32.4,0,0,0,167.22,96a30.7,30.7,0,0,0,15.27-18.75c.65-2.65,3.64-4.26,6.64-3.53A4.82,4.82,0,0,1,192.33,76.37ZM109.48,65.43a5.57,5.57,0,0,0,1.42-4.12,5.35,5.35,0,0,0-5.23-5.09,1.21,1.21,0,0,1-.2,0A13.45,13.45,0,0,1,96,52.32a13.07,13.07,0,0,1-4-9.39,5.31,5.31,0,0,0-1.7-3.65,5.16,5.16,0,0,0-3.76-1.43,5.35,5.35,0,0,0-5.08,5.47A26,26,0,0,0,84,53.23,26.14,26.14,0,0,1,49.17,63.37a5.33,5.33,0,0,0-4.85,9.5,36,36,0,0,0,16.9,4.18l1.35,0A36.39,36.39,0,0,0,90.87,62a23.46,23.46,0,0,0,15,5.09A5.19,5.19,0,0,0,109.48,65.43Zm80.8,70.76a27.83,27.83,0,0,1-17.59,12.36,28.94,28.94,0,0,1-21.26-3.61,5.25,5.25,0,0,0-5.71,8.8,38.16,38.16,0,0,0,20.41,5.85q.74,0,1.47,0a38.92,38.92,0,0,0,31.23-18,5.19,5.19,0,0,0-1.56-7.25,5,5,0,0,0-4.11-.54A4.75,4.75,0,0,0,190.28,136.19Zm64.85-33.79a36.46,36.46,0,0,1-20.87,41.89A45.27,45.27,0,0,1,186,190.93l8.32,40.83a5,5,0,0,1-4.94,6h0a5,5,0,0,1-4.95-4.06l-9.47-48a5.06,5.06,0,0,1,6.12-5.7,35.37,35.37,0,0,0,43.09-34.27,33.71,33.71,0,0,0-2.43-13.05,35.29,35.29,0,0,0-25-21.53,5.19,5.19,0,0,1-4-5.76,5.06,5.06,0,0,1,6.11-4.16,45.55,45.55,0,0,1,33.9,32.49,26.31,26.31,0,0,0,12.17-30.26h-.27a50.72,50.72,0,0,1-50.51-46.87,29.66,29.66,0,0,0-15.45-3.8,5.27,5.27,0,0,1-5.15-7,5.65,5.65,0,0,1,5.31-3.5,39.14,39.14,0,0,1,15.71,2.9,50.4,50.4,0,0,1,4.57-14.58,23.75,23.75,0,0,0-45.83,7,5.06,5.06,0,0,1-5.05,4.72h-.37a5.23,5.23,0,0,1-4.67-5.69,33.76,33.76,0,0,1,12.23-23.46,20.68,20.68,0,0,0-24.17,2,5.08,5.08,0,0,1-5.87.37,29.72,29.72,0,0,0-39.7,9.47,5.23,5.23,0,0,1-6.11,1.94A20.55,20.55,0,0,0,55.21,36a4.94,4.94,0,0,1-4.14,2.52A28.65,28.65,0,0,0,23.2,64.31c0,.15,0,.3,0,.45-.05.53-.11,1.07-.13,1.61a28.65,28.65,0,0,0,20.7,28.36,5.24,5.24,0,0,1,3.83,5.94,5.08,5.08,0,0,1-5,4.07,4.91,4.91,0,0,1-1.36-.19A38.74,38.74,0,0,1,14.42,77.88,39.33,39.33,0,0,0,22.1,124a30.13,30.13,0,0,0,3.71,3.15,39.27,39.27,0,0,0,39,4.39A37.12,37.12,0,0,1,79.1,106.05a5.07,5.07,0,0,1,7.31,1.18,5.22,5.22,0,0,1-1.24,6.94A27.07,27.07,0,0,0,74.74,135.6a26.48,26.48,0,0,0,8.38,19.16,28.8,28.8,0,0,0,19.76,8.07,60.27,60.27,0,0,1,60.2,60.2v9.73a5,5,0,0,1-5,5H158a5,5,0,0,1-5-5V223A50.12,50.12,0,0,0,102.88,173a39,39,0,0,1-26.79-10.91,37,37,0,0,1-10.84-19.8,48.72,48.72,0,0,1-16,2.71,49.92,49.92,0,0,1-23.17-5.76,47.84,47.84,0,0,1-15.92-13.46,49.2,49.2,0,0,1,3-63.57A38.79,38.79,0,0,1,48,28.57,30.72,30.72,0,0,1,79.44,16.31,39.89,39.89,0,0,1,127.6,5.16,30.89,30.89,0,0,1,165,7.57a33.76,33.76,0,0,1,40.5,13.2,50.66,50.66,0,1,1,49.68,81.63ZM285.2,52.82a40.54,40.54,0,1,0-40.54,40.54A40.58,40.58,0,0,0,285.2,52.82ZM269,47.75H249.73V28.5a5.07,5.07,0,1,0-10.13,0V47.75H220.34a5.07,5.07,0,1,0,0,10.14H239.6V77.14a5.07,5.07,0,1,0,10.13,0V57.89H269a5.07,5.07,0,0,0,0-10.14Z"/></g></g></svg>