<svg xmlns="http://www.w3.org/2000/svg" viewBox="0 0 269.73 393.91"><defs><style>.cls-1{fill:#61a60e;}</style></defs><g id="Layer_2" data-name="Layer 2"><g id="Layer_1-2" data-name="Layer 1"><path class="cls-1" d="M36.62,301H42.9v14.64H58.71V301H65v34.54H58.71V321H42.9v14.5H36.62Z"/><path class="cls-1" d="M81,301h20.68v5.4H87.31v9.05H98.94v5.4H87.31v9.29h15.18v5.4H81Z"/><path class="cls-1" d="M133.47,326.68H121.36l-2.92,8.86H112L124.13,301h6.57l12.16,34.54h-6.47ZM127.39,307s-.78,3.41-1.46,5.35l-3.07,9.25h9l-3.06-9.25c-.63-1.94-1.36-5.35-1.36-5.35Z"/><path class="cls-1" d="M154.58,301h11.14c3.75,0,5.45.29,7,1,3.45,1.56,5.64,4.87,5.64,9.44,0,4.13-2.19,8-5.84,9.44v.09a8.41,8.41,0,0,1,1.17,1.71l7.1,12.89h-7l-6.86-12.89h-6v12.89h-6.28Zm11.92,16.2c3.36,0,5.45-2,5.45-5.45s-1.41-5.35-6.33-5.35h-4.76v10.8Z"/><path class="cls-1" d="M201,306.4H189.7V301h28.94v5.4H207.31v29.14H201Z"/><path class="cls-1" d="M18.7,359.37H25V374H40.79V359.37h6.27v34.54H40.79v-14.5H25v14.5H18.7Z"/><path class="cls-1" d="M63.11,359.37H83.78v5.4H69.38v9.05H81v5.4H69.38v9.29H84.56v5.4H63.11Z"/><path class="cls-1" d="M115.55,385.05H103.43l-2.92,8.86H94l12.17-34.54h6.56l12.16,34.54h-6.47Zm-6.08-19.7s-.78,3.41-1.46,5.35L104.94,380h9l-3.07-9.25c-.63-1.94-1.36-5.35-1.36-5.35Z"/><path class="cls-1" d="M136.66,359.37h6.27v29.14h14.94v5.4H136.66Z"/><path class="cls-1" d="M174.55,364.77H163.21v-5.4h28.95v5.4H180.82v29.14h-6.27Z"/><path class="cls-1" d="M204,359.37h6.28V374h15.81V359.37h6.27v34.54h-6.27v-14.5H210.3v14.5H204Z"/><path class="cls-1" d="M247.38,130.24A76.3,76.3,0,0,0,148.63,14.52a75.26,75.26,0,0,0-12.28,11.11,1.94,1.94,0,0,1-3,0A75.26,75.26,0,0,0,121.1,14.52,76.3,76.3,0,0,0,22.35,130.24l97.85,97.84a20.73,20.73,0,0,0,29.33,0L167.58,210a50.63,50.63,0,0,0,71.11-71.1Zm-105.69,90a9.64,9.64,0,0,1-13.65,0L30.19,122.4a65.24,65.24,0,0,1,1-93.2C53.51,7.75,89.38,5.3,114.61,23.51A63.63,63.63,0,0,1,125.08,33a13,13,0,0,0,19.57,0,63.63,63.63,0,0,1,10.47-9.47c25.22-18.21,61.1-15.76,83.44,5.69a65.22,65.22,0,0,1,1,93.2L230.92,131a50.64,50.64,0,0,0-71.25,71.25Zm57.22-9.46a40.54,40.54,0,1,1,40.53-40.53A40.58,40.58,0,0,1,198.91,210.79Z"/><path class="cls-1" d="M223.23,165.19H204V145.93a5.07,5.07,0,0,0-10.13,0v19.26H174.59a5.07,5.07,0,1,0,0,10.13h19.25v19.26a5.07,5.07,0,0,0,10.13,0V175.32h19.26a5.07,5.07,0,1,0,0-10.13Z"/></g></g></svg>